<svg id="Capa_1" enable-background="new 0 0 500 500" height="512" viewBox="0 0 500 500" width="512" xmlns="http://www.w3.org/2000/svg"><g><g fill="#fbe1e9"><path d="m244.438 14.308c-32.616 35.529-48.797 80.681-48.642 125.803l108.411-.002c.152-45.121-16.03-90.274-48.645-125.801-2.989-3.255-8.136-3.255-11.124 0z"/><path d="m.975 199.277c23.711 41.999 61.653 71.34 104.614 85.136l33.499-103.106c-42.866-14.088-90.809-12.651-134.676 7.39-4.018 1.836-5.609 6.732-3.437 10.58z"/><path d="m101.657 487.981c47.27-9.572 86.9-36.59 113.297-73.186l-87.707-63.721c-26.645 36.414-40.093 82.455-34.589 130.368.503 4.391 4.668 7.416 8.999 6.539z"/><path d="m407.343 481.443c5.504-47.915-7.946-93.954-34.593-130.367l-87.705 63.724c26.399 36.593 66.03 63.611 113.299 73.182 4.331.876 8.495-2.149 8.999-6.539z"/><path d="m495.587 188.697c-43.869-20.041-91.811-21.477-134.676-7.386l33.503 103.104c42.96-13.799 80.902-43.141 104.611-85.139 2.172-3.848.581-8.743-3.438-10.579z"/></g><path d="m394.413 284.415c34.8-11.218 64.009-39.667 79.34-82.776-37.744-25.866-78.096-31.711-112.842-20.328-34.102 11.21-64.992 32.243-88.052 61.575 20.772-30.997 31.228-66.877 31.349-102.777.085-36.563-17.945-73.134-54.207-101.036-36.263 27.903-54.292 64.475-54.204 101.038.123 35.897 10.581 71.774 31.352 102.77-23.062-29.333-53.954-50.366-88.059-61.574-34.747-11.379-75.1-5.533-112.842 20.333 15.331 43.111 44.542 71.558 79.343 82.773 34.179 10.976 71.532 12.116 107.429 1.94-35.024 12.868-64.574 35.75-85.773 64.722-21.56 29.53-28.469 69.715-15.533 113.602 45.739-1.259 81.82-20.249 103.24-49.881 21-29.114 33.628-64.286 35.043-101.571 1.416 37.286 14.046 72.46 35.049 101.575 21.422 29.63 57.505 48.619 103.242 49.878 12.937-43.889 6.025-84.073-15.537-113.601-21.2-28.969-50.748-51.848-85.771-64.715 35.898 10.174 73.253 9.032 107.433-1.947z" fill="#fbeff3"/><path d="m250 197.918c-15.623 0-28.289 12.665-28.289 28.289 0 6.236 2.019 11.999 5.438 16.676v31.459h45.705l.004-31.454c3.418-4.676 5.431-10.445 5.431-16.68 0-15.625-12.665-28.29-28.289-28.29z" fill="#fbabc0"/><path d="m177.317 250.725c-4.828 14.859 3.304 30.818 18.163 35.646 5.931 1.927 12.036 1.788 17.54-.018l29.919 9.721 7.061-21.733-22.857-31.456c-3.391-4.695-8.25-8.396-14.18-10.322-14.859-4.829-30.818 3.303-35.646 18.162z" fill="#fbbecf"/><path d="m205.08 336.169c12.64 9.183 30.331 6.381 39.514-6.259 3.665-5.045 5.42-10.895 5.403-16.687l18.491-25.451-18.488-13.431-36.98 12.018c-5.514 1.774-10.534 5.251-14.199 10.296-9.183 12.64-6.381 30.331 6.259 39.514z" fill="#fbabc0"/><path d="m294.921 336.169c12.64-9.183 15.442-26.874 6.258-39.514-3.665-5.045-8.687-8.521-14.201-10.295l-18.491-25.451-18.487 13.432.002 38.884c-.017 5.792 1.739 11.641 5.404 16.686 9.184 12.639 26.875 15.441 39.515 6.258z" fill="#fbbecf"/><path d="m322.683 250.725c-4.828-14.859-20.787-22.99-35.646-18.162-5.931 1.927-10.788 5.628-14.179 10.325l-22.858 31.453 36.981 12.014c5.503 1.806 11.609 1.943 17.539.016 14.859-4.828 22.991-20.787 18.163-35.646z" fill="#fbcfdb"/><path d="m242.497 281.839h15v150.555h-15z" fill="#fbf9e9"/><path d="m321.223 224.646h15v150.554h-15z" fill="#fbf9e9" transform="matrix(.309 -.951 .951 .309 -58.105 519.869)"/><path d="m223.38 199.876h150.554v14.999h-150.554z" fill="#fbf9e9" transform="matrix(.588 -.809 .809 .588 -44.66 327.102)"/><path d="m193.848 132.096h14.999v150.554h-14.999z" fill="#fbf9e9" transform="matrix(.809 -.588 .588 .809 -83.436 157.95)"/><path d="m95.998 292.418h150.554v15h-150.554z" fill="#fbf9e9" transform="matrix(.951 -.309 .309 .951 -84.291 67.599)"/><circle cx="250" cy="274.341" fill="#fb71a0" r="15"/><circle cx="250" cy="439.894" fill="#fbf6c3" r="15"/><circle cx="407.45" cy="325.5" fill="#fbf6c3" r="15"/><circle cx="347.309" cy="140.406" fill="#fbf6c3" r="15"/><circle cx="152.691" cy="140.406" fill="#fbf6c3" r="15"/><circle cx="92.55" cy="325.5" fill="#fbf6c3" r="15"/></g></svg>